<?xml version="1.0" encoding="UTF-8" standalone="no"?>
<svg
   inkscape:version="1.2.2 (1:1.2.2+202212051550+b0a8486541)"
   sodipodi:docname="roll90d.svg"
   xml:space="preserve"
   viewBox="0 0 64.000002 50.000001"
   y="0px"
   x="0px"
   id="Layer_1"
   version="1.1"
   width="64"
   height="50"
   xmlns:inkscape="http://www.inkscape.org/namespaces/inkscape"
   xmlns:sodipodi="http://sodipodi.sourceforge.net/DTD/sodipodi-0.dtd"
   xmlns="http://www.w3.org/2000/svg"
   xmlns:svg="http://www.w3.org/2000/svg"
   xmlns:rdf="http://www.w3.org/1999/02/22-rdf-syntax-ns#"
   xmlns:cc="http://creativecommons.org/ns#"
   xmlns:dc="http://purl.org/dc/elements/1.1/"><metadata
     id="metadata21"><rdf:RDF><cc:Work
         rdf:about=""><dc:format>image/svg+xml</dc:format><dc:type
           rdf:resource="http://purl.org/dc/dcmitype/StillImage" /></cc:Work></rdf:RDF></metadata><defs
     id="defs19" /><sodipodi:namedview
     inkscape:current-layer="Layer_1"
     inkscape:window-maximized="1"
     inkscape:window-y="27"
     inkscape:window-x="72"
     inkscape:cy="21.629925"
     inkscape:cx="44.417508"
     inkscape:zoom="8.2062236"
     showgrid="false"
     id="namedview17"
     inkscape:window-height="704"
     inkscape:window-width="1294"
     inkscape:pageshadow="2"
     inkscape:pageopacity="0"
     guidetolerance="10"
     gridtolerance="10"
     objecttolerance="10"
     borderopacity="1"
     bordercolor="#666666"
     pagecolor="#ffffff"
     inkscape:showpageshadow="2"
     inkscape:pagecheckerboard="0"
     inkscape:deskcolor="#d1d1d1" /><style
     id="style2"
     type="text/css">.st0{fill-rule:evenodd;clip-rule:evenodd;}</style><g
     style="fill:#cccccc"
     transform="matrix(0.5208093,0,0,-0.95667696,-9.1238619e-4,62.719741)"
     id="g14"><path
       style="fill:#cccccc"
       id="path4"
       d="m 25.89,26.28 c -50.5,15.04 23.46,24.44 38.63,24.31 V 43.15 L 75.73,54.35 64.52,65.56 V 58.59 C 34.83,59.72 -38.93,38.66 25.88,23.65 Z"
       class="st0" /><path
       style="fill:#cccccc"
       id="path6"
       d="m 100.71,26.9 c 19.49,5.05 20.66,15.1 -2.06,20.71 -5.3,1.31 -11.29,2.5 -17.86,2.99 v 6.05 c 7.31,-0.51 14.1,-2.19 20.06,-3.63 32.51,-7.88 26.12,-22.9 -0.13,-28.61 z"
       class="st0" /></g><path
     style="fill:#cccccc;stroke-width:0.501711"
     id="path12"
     d="m 40.040046,24.733516 c 0,-1.222468 0.276451,-2.079089 0.834998,-2.565397 0.558546,-0.486307 1.404818,-0.731693 2.544479,-0.731693 0.547264,0 0.998608,0.05355 1.348403,0.160613 0.349796,0.107076 0.63753,0.245387 0.857564,0.414926 0.225672,0.169539 0.394929,0.352463 0.524697,0.539845 0.129761,0.18739 0.23131,0.410467 0.310301,0.660313 0.152327,0.477383 0.225672,0.981541 0.225672,1.499083 0,1.168923 -0.248238,2.021085 -0.750369,2.560931 -0.496486,0.539846 -1.359687,0.812001 -2.57833,0.812001 -0.682662,0 -1.235563,-0.08476 -1.658703,-0.258766 -0.42314,-0.174004 -0.767298,-0.42385 -1.038104,-0.758468 -0.197468,-0.236463 -0.349795,-0.562157 -0.45699,-0.972616 -0.112839,-0.406001 -0.163618,-0.86108 -0.163618,-1.360772 z m 2.239816,0.0043 c 0,0.816462 0.09028,1.378617 0.27646,1.677542 0.186177,0.298925 0.451344,0.450618 0.795501,0.450618 0.231311,0 0.428778,-0.06246 0.598035,-0.191847 0.169256,-0.129386 0.293379,-0.330153 0.372362,-0.602309 0.07896,-0.276615 0.118477,-0.704926 0.118477,-1.284925 0,-0.852161 -0.09027,-1.427701 -0.27645,-1.72216 -0.186178,-0.294465 -0.45699,-0.441695 -0.823706,-0.441695 -0.378008,0 -0.643176,0.151689 -0.812431,0.450613 -0.169256,0.298926 -0.248248,0.852162 -0.248248,1.664163 z" /><text
     id="text70"
     y="43.55603"
     x="17.873264"
     style="font-style:normal;font-variant:normal;font-weight:bold;font-stretch:normal;font-size:20.593px;line-height:1.25;font-family:Arial;-inkscape-font-specification:'Arial Bold';fill:#cccccc;fill-opacity:1;stroke:none;stroke-width:0.965301"
     xml:space="preserve"
     transform="scale(1.0536469,0.94908455)"><tspan
       style="font-size:20.593px;fill:#cccccc;stroke-width:0.965301"
       y="43.55603"
       x="17.873264"
       id="tspan68"
       sodipodi:role="line">90</tspan></text></svg>
