<?xml version="1.0" encoding="UTF-8" standalone="no"?>
<svg
   xmlns:dc="http://purl.org/dc/elements/1.1/"
   xmlns:cc="http://creativecommons.org/ns#"
   xmlns:rdf="http://www.w3.org/1999/02/22-rdf-syntax-ns#"
   xmlns:svg="http://www.w3.org/2000/svg"
   xmlns="http://www.w3.org/2000/svg"
   xmlns:sodipodi="http://sodipodi.sourceforge.net/DTD/sodipodi-0.dtd"
   xmlns:inkscape="http://www.inkscape.org/namespaces/inkscape"
   inkscape:version="1.0 (4035a4fb49, 2020-05-01)"
   sodipodi:docname="roll90-1.svg"
   xml:space="preserve"
   style="enable-background:new 0 0 122.88 65.56"
   viewBox="0 0 122.88 65.56"
   y="0px"
   x="0px"
   id="Layer_1"
   version="1.1"><metadata
     id="metadata21"><rdf:RDF><cc:Work
         rdf:about=""><dc:format>image/svg+xml</dc:format><dc:type
           rdf:resource="http://purl.org/dc/dcmitype/StillImage" /><dc:title></dc:title></cc:Work></rdf:RDF></metadata><defs
     id="defs19" /><sodipodi:namedview
     inkscape:current-layer="Layer_1"
     inkscape:window-maximized="1"
     inkscape:window-y="-8"
     inkscape:window-x="-8"
     inkscape:cy="32.779999"
     inkscape:cx="63.218344"
     inkscape:zoom="8.2062236"
     showgrid="false"
     id="namedview17"
     inkscape:window-height="705"
     inkscape:window-width="1366"
     inkscape:pageshadow="2"
     inkscape:pageopacity="0"
     guidetolerance="10"
     gridtolerance="10"
     objecttolerance="10"
     borderopacity="1"
     bordercolor="#666666"
     pagecolor="#ffffff" /><style
     id="style2"
     type="text/css">.st0{fill-rule:evenodd;clip-rule:evenodd;}</style><g
     style="fill:#cccccc"
     transform="matrix(0,-0.51206036,0.72943438,0,23.058947,64.19353)"
     id="g14"><path
       style="fill:#cccccc"
       id="path4"
       d="m 25.89,26.28 c -50.5,15.04 23.46,24.44 38.63,24.31 V 43.15 L 75.73,54.35 64.52,65.56 V 58.59 C 34.83,59.72 -38.93,38.66 25.88,23.65 Z"
       class="st0" /><path
       style="fill:#cccccc"
       id="path6"
       d="m 100.71,26.9 c 19.49,5.05 20.66,15.1 -2.06,20.71 -5.3,1.31 -11.29,2.5 -17.86,2.99 v 6.05 c 7.31,-0.51 14.1,-2.19 20.06,-3.63 32.51,-7.88 26.12,-22.9 -0.13,-28.61 z"
       class="st0" /></g><path
     style="fill:#cccccc;stroke-width:0.519747"
     id="path12"
     d="m 50.350608,20.930486 c 0,-1.334351 0.271807,-2.269371 0.820971,-2.800187 0.549164,-0.530816 1.38122,-0.798661 2.501735,-0.798661 0.538071,0 0.981833,0.05845 1.325752,0.175314 0.34392,0.116876 0.62682,0.267845 0.843158,0.452901 0.221881,0.185055 0.388294,0.384721 0.515883,0.589253 0.127581,0.20454 0.227424,0.448034 0.305088,0.720746 0.149768,0.521074 0.221881,1.071374 0.221881,1.636283 0,1.275906 -0.244068,2.206059 -0.737764,2.795313 -0.488145,0.589254 -1.336846,0.886318 -2.535017,0.886318 -0.671194,0 -1.214807,-0.09252 -1.630839,-0.282448 -0.416032,-0.18993 -0.754409,-0.462643 -1.020665,-0.827886 -0.194151,-0.258104 -0.343919,-0.613606 -0.449313,-1.061632 -0.110944,-0.443159 -0.16087,-0.939888 -0.16087,-1.485314 z m 2.202191,0.0047 c 0,0.891186 0.08876,1.504791 0.271815,1.831074 0.183049,0.326283 0.443762,0.491861 0.782138,0.491861 0.227424,0 0.421575,-0.06818 0.587988,-0.209407 0.166413,-0.141227 0.288451,-0.360369 0.366107,-0.657433 0.07763,-0.301932 0.116487,-0.769442 0.116487,-1.402524 0,-0.930153 -0.08875,-1.558368 -0.271806,-1.879777 -0.18305,-0.321415 -0.449313,-0.48212 -0.809869,-0.48212 -0.371658,0 -0.632371,0.165572 -0.798783,0.491855 -0.166413,0.326283 -0.244077,0.930153 -0.244077,1.816471 z" /><text
     id="text70"
     y="41.919403"
     x="27.783794"
     style="font-style:normal;font-variant:normal;font-weight:bold;font-stretch:normal;font-size:24px;line-height:1.25;font-family:Arial;-inkscape-font-specification:'Arial Bold';fill:#cccccc;fill-opacity:1;stroke:none;"
     xml:space="preserve"><tspan
       style="font-size:24px;fill:#cccccc;"
       y="41.919403"
       x="27.783794"
       id="tspan68"
       sodipodi:role="line">90</tspan></text></svg>
